PathFileType	4	(X/Y/Z)	RBDS018\RBDS018runT35.trc
DataRate	CameraRate	NumFrames	NumMarkers	Units	OrigDataRate	OrigDataStartFrame	OrigNumFrames
150.000000	150.000000	4	33	mm	150.000000	1125	4500
Frame#	Time	L.ASIS			L.Heel.Bottom			L.Heel.Lateral			L.Heel.Top			L.Iliac.Crest			L.MT1			L.MT5			L.PSIS			L.Shank.Bottom.Lateral			L.Shank.Bottom.Medial			L.Shank.Top.Lateral			L.Shank.Top.Medial			L.Thigh.Bottom.Lateral			L.Thigh.Bottom.Medial			L.Thigh.Top.Lateral			L.Thigh.Top.Medial			R.ASIS			R.ASY			R.Heel.Bottom			R.Heel.Lateral			R.Heel.Top			R.Iliac.Crest			R.MT1			R.MT5			R.PSIS			R.Shank.Bottom.Lateral			R.Shank.Bottom.Medial			R.Shank.Top.Lateral			R.Shank.Top.Medial			R.Thigh.Bottom.Lateral			R.Thigh.Bottom.Medial			R.Thigh.Top.Lateral			R.Thigh.Top.Medial			
		X1	Y1	Z1	X2	Y2	Z2	X3	Y3	Z3	X4	Y4	Z4	X5	Y5	Z5	X6	Y6	Z6	X7	Y7	Z7	X8	Y8	Z8	X9	Y9	Z9	X10	Y10	Z10	X11	Y11	Z11	X12	Y12	Z12	X13	Y13	Z13	X14	Y14	Z14	X15	Y15	Z15	X16	Y16	Z16	X17	Y17	Z17	X18	Y18	Z18	X19	Y19	Z19	X20	Y20	Z20	X21	Y21	Z21	X22	Y22	Z22	X23	Y23	Z23	X24	Y24	Z24	X25	Y25	Z25	X26	Y26	Z26	X27	Y27	Z27	X28	Y28	Z28	X29	Y29	Z29	X30	Y30	Z30	X31	Y31	Z31	X32	Y32	Z32	X33	Y33	Z33	

1126	7.500000000000001	2199.513068307575	1035.14950667636	901.7240425401445	1550.911247583954	557.7101745661693	996.3507108834173	1544.351974841368	521.5968801687435	952.6660086213723	1595.875251954991	538.7317320665036	983.0778730649636	2149.886969429392	1123.987573166016	850.5947955141997	1537.554128491782	343.2999850216404	1062.483041481622	1512.188102171617	358.5083558328813	952.9269794529487	2021.973009968178	1069.753880105243	936.9406900121546	1683.982145907762	502.0906712218159	922.1119447960856	1683.425106243026	534.327138615276	961.9126857331263	1759.703420695709	524.0208743685096	902.2273183764696	1762.75152916457	557.1426509244185	943.3465326625741	2055.344066505545	619.0291787876254	855.6759287779795	2001.196887392088	636.4181542052556	902.0686137315994	2070.449844441751	725.2204209609533	834.2595451014326	2016.549463376246	741.540524991033	876.1297766325855	2176.595553210158	1044.955273817513	1120.809292681625	2440.725244466739	104.5362069983277	1024.688808850239	2245.89920625145	51.20865351424576	1000.04916694772	2268.158850069191	52.41096739771439	1040.264941051442	2257.313065458682	97.21080557597888	1017.701107284983	2108.171057102486	1120.097209904291	1148.839288741032	2466.625456984579	81.19804374118705	962.987337310939	2441.129913241846	44.07532608898912	1066.370521864732	2007.608264298359	1066.661696321688	1047.785646918936	2297.107462791317	208.4481474974224	1102.038001366955	2256.995441154796	212.0019492558986	1063.628609147064	2280.691511107125	284.7523716146467	1124.457874424405	2242.021004810455	287.8521473604463	1086.232277108265	2236.842778183263	637.80074170205	1167.961627993224	2181.001244049953	618.3317418161612	1125.892938452868	2186.193968908971	734.3823105515172	1188.325291000989	2133.696897596421	714.9337937996162	1149.91614810706	
1127	7.506666666666667	2199.127406009462	1029.123761097745	901.4841255490218	1566.600901899105	568.4679910546	996.4662410215343	1559.141445433386	533.9281581081594	951.4033130268439	1611.009089368336	548.2006383446738	982.9055466833657	2149.944917838895	1116.839835693153	849.993722802841	1544.752606588048	352.4011537075532	1055.735705452113	1521.202922886104	371.911947995839	946.4278073920065	2021.341721286822	1060.78695778245	936.0931345208777	1697.782093177189	508.79151320626	920.5775707095784	1698.614029548662	540.0364596100444	961.1139579796759	1774.291611131697	527.5624927000766	901.2811326638506	1778.83399755965	559.3828149982545	943.2803345089628	2063.883328627317	610.619156211929	854.2379928322811	2009.941088322001	626.4084028079278	901.5573466941281	2076.056782633201	717.270103540012	833.1205806297046	2022.190816145606	732.025654468768	875.6617234896457	2175.857260343035	1040.059329475085	1120.858659470351	2425.574869416946	98.61766932455131	1020.930346214634	2229.876344079119	47.27636528474407	996.9325884777696	2251.96243599432	49.02280991286545	1037.098400758843	2242.112533859181	93.40036929404734	1013.654654961479	2106.705157258174	1114.242250782163	1148.577953000656	2451.467399873243	73.55305638345379	959.7698258684339	2424.611151076152	40.58472663989793	1064.297516052957	2006.642066421818	1059.023186015564	1046.855598553537	2285.6027468229	201.9363525500873	1098.971235102732	2245.453778966024	206.7625941804665	1060.951575831533	2271.108080355853	278.2880057042772	1122.013643645869	2232.595303952877	282.6392772820511	1083.926780488462	2233.20922093478	631.9767500501266	1167.187939305493	2177.450241389917	612.6646043307721	1124.983933814278	2182.805495497852	728.7167837162251	1187.326276832042	2130.307581670525	709.4280170470101	1148.82720806311	
1128	7.513333333333334	2198.615718796418	1022.385535830409	901.4360733897909	1583.079141351267	577.8285409239543	996.152690896111	1575.034560201913	544.7969445298437	949.8415226895709	1627.005130567221	556.424277909324	982.4925331494902	2150.011423642131	1108.757886926199	849.3994404410289	1553.333063356948	360.5811215628985	1048.955661754723	1531.992216820771	384.0075007746022	939.8930031244731	2020.578756148203	1051.547768829254	935.1773817265496	1712.693653025637	514.4747828862829	918.8297604819024	1714.727338605578	544.7616962223503	959.9943311709336	1789.809965721047	530.1266939526282	900.057875610621	1795.692395772425	560.6458679754116	942.8769614683313	2072.737933141623	602.2096168164235	852.5474296960507	2018.821196068313	616.2994612975994	900.5052071439817	2081.940489921357	709.2684004365212	831.8270523225532	2027.950962903021	722.3528433383788	874.774732414102	2174.905822778765	1034.712596048351	1121.076864431792	2408.091349973123	93.43478857907097	1016.795400171458	2211.626249044454	43.71913047821583	993.6619917039711	2233.518542068868	46.36671788860505	1033.73912835802	2224.615833009377	90.07673882972185	1009.0639156843	2105.229033273104	1107.796558061182	1148.492000799895	2434.216224301047	66.44058906647427	956.509584083764	2405.892551394026	38.06448722528408	1062.251804649383	2005.508905633721	1051.354801314418	1045.863456887824	2272.901415940829	195.7850721820757	1095.572339647143	2232.449995361906	202.1464784599856	1058.324737377015	2260.850630160677	272.1613279378985	1119.452152137128	2222.221532665528	278.000528746344	1081.885602430358	2229.56033096091	626.1309785858992	1166.626778627116	2173.968769071417	606.95079389471	1124.178275870999	2179.324214599848	722.9540430591396	1186.535483444921	2126.859307261353	703.8110991980133	1147.886441265455	
1129	7.52	2197.955994735991	1014.999284585425	901.6103206785258	1600.116896352517	585.7664187747532	995.3046483143931	1591.793039639498	554.1016003695109	947.9235320287785	1643.651722501023	563.3888986490634	981.7551630861003	2149.97578270722	1099.835299709227	848.8105128288024	1563.266610754325	367.7826098327059	1042.254478078604	1544.431020274107	394.6022886488851	933.4200857725045	2019.641832799441	1042.275795712202	934.2316197739503	1728.578955286634	519.1159129185454	916.8404144619163	1731.625075153286	548.5338451033539	958.5037839780653	1806.140581229658	531.7477774599286	898.5253545040006	1813.192407114943	561.0307522333646	942.0703816702453	2082.011812679958	593.9527102120666	850.6182641486563	2027.899701218098	606.2173141290888	898.8588330459841	2088.183184625952	701.362685060867	830.3926582050083	2033.884407537661	712.6438143557888	873.4310504851315	2173.692983805918	1029.004999701656	1121.486451719736	2388.577194890115	89.16154507262176	1012.390620418181	2191.516471749071	40.59323114321731	990.3454625634516	2213.219914818118	44.47147471271558	1030.289790432111	2205.140030089141	87.2859099551535	1004.093057598776	2103.720455571413	1100.855558365894	1148.587642062669	2415.163534396533	60.17604295191138	953.2889713612617	2385.384229754065	36.53172661272794	1060.225434841284	2004.155089083078	1043.846222738713	1044.824920339144	2259.180993592263	190.2227125508705	1091.93655809938	2218.181170106237	198.3204739437146	1055.809355980515	2250.019700505056	266.5869963219086	1116.813045976596	2211.00631372066	274.0889953827112	1080.130070173523	2225.799338840609	620.3552165051523	1166.252246326168	2170.451293134477	601.3269532840661	1123.436669673202	2175.681280488126	717.2016699337131	1185.969044428246	2123.288924069966	698.2272228787076	1147.090181971711	
